<svg width="872" height="116" viewBox="0 0 872 116" fill="none" xmlns="http://www.w3.org/2000/svg">
<path d="M31.8633 0.425781L34.9102 8.98047C31.1211 10.3086 28.5234 12.6719 27.1172 16.0703C25.75 19.4297 25.0664 23.2969 25.0664 27.6719V39.6836C25.0664 43.5898 24.207 47.1445 22.4883 50.3477C20.8086 53.5508 18.1328 56.1094 14.4609 58.0234C10.7891 59.8984 5.98438 60.8359 0.046875 60.8359V52.3398C3.91406 52.3398 6.6875 51.207 8.36719 48.9414C10.0469 46.6367 10.8867 43.5508 10.8867 39.6836V27.6719C10.8867 23.5703 11.5117 19.7422 12.7617 16.1875C14.0508 12.5938 16.2188 9.44922 19.2656 6.75391C22.3516 4.01953 26.5508 1.91016 31.8633 0.425781ZM34.9102 106.598L31.8633 115.27C26.5508 113.746 22.3516 111.617 19.2656 108.883C16.2188 106.188 14.0508 103.043 12.7617 99.4492C11.5117 95.8945 10.8867 92.0664 10.8867 87.9648V76.0117C10.8867 73.4336 10.5156 71.207 9.77344 69.332C9.03125 67.418 7.85938 65.9531 6.25781 64.9375C4.69531 63.8828 2.625 63.3555 0.046875 63.3555V54.8008C5.98438 54.8008 10.7891 55.7578 14.4609 57.6719C18.1328 59.5469 20.8086 62.0859 22.4883 65.2891C24.207 68.4531 25.0664 72.0273 25.0664 76.0117V87.9648C25.0664 90.8945 25.3594 93.5898 25.9453 96.0508C26.5703 98.5508 27.5859 100.719 28.9922 102.555C30.4375 104.391 32.4102 105.738 34.9102 106.598ZM836.862 8.98047L839.909 0.425781C845.299 1.91016 849.518 4.01953 852.565 6.75391C855.612 9.44922 857.76 12.5938 859.01 16.1875C860.26 19.7422 860.885 23.5703 860.885 27.6719V39.6836C860.885 42.2617 861.256 44.5078 861.998 46.4219C862.741 48.2969 863.912 49.7617 865.514 50.8164C867.116 51.832 869.205 52.3398 871.784 52.3398V60.543C865.885 60.543 861.08 59.6445 857.37 57.8477C853.659 56.0117 850.944 53.5117 849.225 50.3477C847.545 47.1445 846.705 43.5898 846.705 39.6836V27.6719C846.705 24.7422 846.412 22.0273 845.827 19.5273C845.28 17.0273 844.284 14.8789 842.838 13.082C841.393 11.2461 839.401 9.87891 836.862 8.98047ZM839.909 115.27L836.862 106.598C839.401 105.738 841.373 104.391 842.78 102.555C844.225 100.719 845.241 98.5508 845.827 96.0508C846.412 93.5898 846.705 90.8945 846.705 87.9648V76.0117C846.705 72.0273 847.545 68.4727 849.225 65.3477C850.944 62.1836 853.659 59.7031 857.37 57.9062C861.08 56.0703 865.885 55.1523 871.784 55.1523V63.3555C867.955 63.3555 865.182 64.5078 863.463 66.8125C861.745 69.0781 860.885 72.1445 860.885 76.0117V87.9648C860.885 92.0664 860.26 95.8945 859.01 99.4492C857.76 103.043 855.612 106.188 852.565 108.883C849.518 111.617 845.299 113.746 839.909 115.27Z" fill="#1DBBDE"/>
<path d="M51.4195 8.6875H65.3648L88.6852 72.9062L111.947 8.6875H125.951L94.2516 94H83.0602L51.4195 8.6875ZM44.3883 8.6875H58.0406L60.5016 67.6914V94H44.3883V8.6875ZM119.271 8.6875H132.982V94H116.869V67.6914L119.271 8.6875ZM182.538 80.5234V51.2852C182.538 49.1367 182.167 47.2812 181.425 45.7188C180.683 44.1562 179.55 42.9453 178.027 42.0859C176.503 41.2266 174.57 40.7969 172.226 40.7969C170.155 40.7969 168.339 41.1484 166.777 41.8516C165.253 42.5547 164.081 43.5508 163.261 44.8398C162.441 46.0898 162.03 47.5352 162.03 49.1758H146.503C146.503 46.5586 147.128 44.0781 148.378 41.7344C149.628 39.3516 151.405 37.2422 153.71 35.4062C156.054 33.5312 158.847 32.0664 162.089 31.0117C165.37 29.957 169.042 29.4297 173.105 29.4297C177.909 29.4297 182.187 30.25 185.937 31.8906C189.726 33.4922 192.695 35.9141 194.843 39.1562C197.03 42.3984 198.124 46.4805 198.124 51.4023V79.0586C198.124 82.2227 198.32 84.9375 198.71 87.2031C199.14 89.4297 199.765 91.3633 200.585 93.0039V94H184.823C184.081 92.3984 183.515 90.3672 183.124 87.9062C182.734 85.4062 182.538 82.9453 182.538 80.5234ZM184.706 55.3867L184.823 64.5859H175.038C172.616 64.5859 170.488 64.8398 168.652 65.3477C166.816 65.8164 165.312 66.5195 164.14 67.457C162.968 68.3555 162.089 69.4492 161.503 70.7383C160.917 71.9883 160.624 73.4141 160.624 75.0156C160.624 76.5781 160.976 77.9844 161.679 79.2344C162.421 80.4844 163.476 81.4805 164.843 82.2227C166.249 82.9258 167.89 83.2773 169.765 83.2773C172.499 83.2773 174.882 82.7305 176.913 81.6367C178.945 80.5039 180.527 79.1367 181.659 77.5352C182.792 75.9336 183.398 74.4102 183.476 72.9648L187.929 79.6445C187.382 81.2461 186.562 82.9453 185.468 84.7422C184.374 86.5391 182.968 88.2188 181.249 89.7812C179.53 91.3438 177.46 92.6328 175.038 93.6484C172.616 94.6641 169.804 95.1719 166.601 95.1719C162.499 95.1719 158.827 94.3516 155.585 92.7109C152.343 91.0703 149.784 88.8242 147.909 85.9727C146.034 83.1211 145.097 79.8789 145.097 76.2461C145.097 72.8867 145.722 69.918 146.972 67.3398C148.222 64.7617 150.077 62.5938 152.538 60.8359C154.999 59.0391 158.046 57.6914 161.679 56.793C165.351 55.8555 169.55 55.3867 174.277 55.3867H184.706ZM226.645 44.1367V94H211.177V30.6016H225.708L226.645 44.1367ZM224.184 60.0156H219.614C219.653 55.4062 220.278 51.2266 221.489 47.4766C222.7 43.7266 224.399 40.5039 226.587 37.8086C228.813 35.1133 231.45 33.043 234.497 31.5977C237.544 30.1523 240.942 29.4297 244.692 29.4297C247.739 29.4297 250.493 29.8594 252.954 30.7188C255.415 31.5781 257.524 32.9453 259.282 34.8203C261.079 36.6953 262.446 39.1562 263.384 42.2031C264.36 45.2109 264.848 48.9219 264.848 53.3359V94H249.262V53.2188C249.262 50.3281 248.833 48.043 247.973 46.3633C247.153 44.6836 245.942 43.4922 244.341 42.7891C242.778 42.0859 240.845 41.7344 238.54 41.7344C236.157 41.7344 234.067 42.2227 232.27 43.1992C230.512 44.1367 229.028 45.4453 227.817 47.125C226.645 48.8047 225.747 50.7383 225.122 52.9258C224.497 55.1133 224.184 57.4766 224.184 60.0156ZM315.635 78.9414V30.6016H331.221V94H316.573L315.635 78.9414ZM317.627 65.8164L322.432 65.6992C322.432 69.957 321.963 73.8828 321.026 77.4766C320.088 81.0703 318.623 84.1953 316.631 86.8516C314.678 89.4688 312.198 91.5195 309.19 93.0039C306.182 94.4492 302.627 95.1719 298.526 95.1719C295.401 95.1719 292.549 94.7422 289.971 93.8828C287.393 92.9844 285.166 91.5977 283.291 89.7227C281.455 87.8086 280.03 85.3672 279.014 82.3984C277.998 79.3906 277.491 75.7773 277.491 71.5586V30.6016H292.959V71.6758C292.959 73.7852 293.194 75.543 293.663 76.9492C294.17 78.3555 294.854 79.5078 295.713 80.4062C296.612 81.2656 297.647 81.8906 298.819 82.2812C300.03 82.6328 301.319 82.8086 302.686 82.8086C306.436 82.8086 309.385 82.0664 311.534 80.582C313.721 79.0586 315.284 77.0273 316.221 74.4883C317.159 71.9102 317.627 69.0195 317.627 65.8164ZM372.809 95.1719C368.004 95.1719 363.688 94.3906 359.859 92.8281C356.031 91.2656 352.77 89.0977 350.074 86.3242C347.418 83.5117 345.367 80.25 343.922 76.5391C342.516 72.7891 341.812 68.7656 341.812 64.4688V62.125C341.812 57.2422 342.516 52.8086 343.922 48.8242C345.328 44.8008 347.32 41.3438 349.898 38.4531C352.477 35.5625 355.562 33.3359 359.156 31.7734C362.75 30.2109 366.715 29.4297 371.051 29.4297C375.543 29.4297 379.508 30.1914 382.945 31.7148C386.383 33.1992 389.254 35.3086 391.559 38.043C393.863 40.7773 395.602 44.0586 396.773 47.8867C397.945 51.6758 398.531 55.875 398.531 60.4844V66.9883H348.844V56.3242H383.297V55.1523C383.219 52.6914 382.75 50.4453 381.891 48.4141C381.031 46.3438 379.703 44.7031 377.906 43.4922C376.109 42.2422 373.785 41.6172 370.934 41.6172C368.629 41.6172 366.617 42.125 364.898 43.1406C363.219 44.1172 361.812 45.5234 360.68 47.3594C359.586 49.1562 358.766 51.3047 358.219 53.8047C357.672 56.3047 357.398 59.0781 357.398 62.125V64.4688C357.398 67.125 357.75 69.5859 358.453 71.8516C359.195 74.1172 360.27 76.0898 361.676 77.7695C363.121 79.4102 364.84 80.6992 366.832 81.6367C368.863 82.5352 371.168 82.9844 373.746 82.9844C376.988 82.9844 379.918 82.3594 382.535 81.1094C385.191 79.8203 387.496 77.9258 389.449 75.4258L397.242 83.5117C395.914 85.4648 394.117 87.3398 391.852 89.1367C389.625 90.9336 386.93 92.3984 383.766 93.5312C380.602 94.625 376.949 95.1719 372.809 95.1719ZM424.709 4V94H409.181V4H424.709ZM537.884 8.6875V94H521.712L485.442 34.8203V94H469.329V8.6875H485.442L521.829 67.9258V8.6875H537.884ZM580.995 95.1719C576.19 95.1719 571.873 94.3906 568.045 92.8281C564.217 91.2656 560.955 89.0977 558.26 86.3242C555.604 83.5117 553.553 80.25 552.108 76.5391C550.702 72.7891 549.998 68.7656 549.998 64.4688V62.125C549.998 57.2422 550.702 52.8086 552.108 48.8242C553.514 44.8008 555.506 41.3438 558.084 38.4531C560.662 35.5625 563.748 33.3359 567.342 31.7734C570.936 30.2109 574.901 29.4297 579.237 29.4297C583.729 29.4297 587.694 30.1914 591.131 31.7148C594.569 33.1992 597.44 35.3086 599.745 38.043C602.049 40.7773 603.787 44.0586 604.959 47.8867C606.131 51.6758 606.717 55.875 606.717 60.4844V66.9883H557.03V56.3242H591.483V55.1523C591.405 52.6914 590.936 50.4453 590.077 48.4141C589.217 46.3438 587.889 44.7031 586.092 43.4922C584.295 42.2422 581.971 41.6172 579.12 41.6172C576.815 41.6172 574.803 42.125 573.084 43.1406C571.405 44.1172 569.998 45.5234 568.866 47.3594C567.772 49.1562 566.952 51.3047 566.405 53.8047C565.858 56.3047 565.584 59.0781 565.584 62.125V64.4688C565.584 67.125 565.936 69.5859 566.639 71.8516C567.381 74.1172 568.455 76.0898 569.862 77.7695C571.307 79.4102 573.026 80.6992 575.018 81.6367C577.049 82.5352 579.354 82.9844 581.932 82.9844C585.174 82.9844 588.104 82.3594 590.721 81.1094C593.377 79.8203 595.682 77.9258 597.635 75.4258L605.428 83.5117C604.1 85.4648 602.303 87.3398 600.037 89.1367C597.811 90.9336 595.116 92.3984 591.952 93.5312C588.787 94.625 585.135 95.1719 580.995 95.1719ZM632.895 4V94H617.367V4H632.895ZM681.923 76.6562C681.923 75.3281 681.572 74.1367 680.869 73.082C680.166 72.0273 678.838 71.0703 676.884 70.2109C674.97 69.3125 672.158 68.4727 668.447 67.6914C665.166 66.9883 662.138 66.1094 659.365 65.0547C656.591 64 654.209 62.7305 652.216 61.2461C650.224 59.7227 648.662 57.9453 647.529 55.9141C646.435 53.8438 645.888 51.4609 645.888 48.7656C645.888 46.1484 646.455 43.6875 647.588 41.3828C648.72 39.0391 650.361 36.9883 652.509 35.2305C654.658 33.4336 657.275 32.0273 660.361 31.0117C663.447 29.957 666.923 29.4297 670.791 29.4297C676.181 29.4297 680.81 30.3086 684.677 32.0664C688.584 33.8242 691.572 36.2461 693.642 39.332C695.713 42.3789 696.748 45.8164 696.748 49.6445H681.279C681.279 47.9648 680.888 46.4414 680.107 45.0742C679.365 43.707 678.213 42.6133 676.65 41.793C675.088 40.9336 673.115 40.5039 670.732 40.5039C668.584 40.5039 666.767 40.8555 665.283 41.5586C663.838 42.2617 662.744 43.1797 662.002 44.3125C661.259 45.4453 660.888 46.6953 660.888 48.0625C660.888 49.0781 661.084 49.9961 661.474 50.8164C661.904 51.5977 662.588 52.3203 663.525 52.9844C664.463 53.6484 665.732 54.2539 667.334 54.8008C668.974 55.3477 670.986 55.875 673.369 56.3828C678.095 57.3203 682.216 58.5703 685.732 60.1328C689.287 61.6562 692.06 63.6875 694.052 66.2266C696.045 68.7656 697.041 72.0078 697.041 75.9531C697.041 78.7656 696.435 81.3438 695.224 83.6875C694.013 85.9922 692.255 88.0039 689.951 89.7227C687.646 91.4414 684.892 92.7891 681.689 93.7656C678.486 94.7031 674.873 95.1719 670.849 95.1719C665.029 95.1719 660.107 94.1367 656.084 92.0664C652.06 89.957 649.013 87.3008 646.943 84.0977C644.873 80.8555 643.838 77.4961 643.838 74.0195H658.662C658.779 76.4805 659.443 78.4531 660.654 79.9375C661.865 81.4219 663.388 82.4961 665.224 83.1602C667.099 83.7852 669.072 84.0977 671.142 84.0977C673.486 84.0977 675.459 83.7852 677.06 83.1602C678.662 82.4961 679.873 81.6172 680.693 80.5234C681.513 79.3906 681.923 78.1016 681.923 76.6562ZM705.464 62.9453V61.7148C705.464 57.0664 706.128 52.7891 707.456 48.8828C708.784 44.9375 710.718 41.5195 713.257 38.6289C715.796 35.7383 718.902 33.4922 722.573 31.8906C726.245 30.25 730.425 29.4297 735.112 29.4297C739.878 29.4297 744.097 30.25 747.769 31.8906C751.48 33.4922 754.605 35.7383 757.144 38.6289C759.683 41.5195 761.616 44.9375 762.945 48.8828C764.273 52.7891 764.937 57.0664 764.937 61.7148V62.9453C764.937 67.5547 764.273 71.832 762.945 75.7773C761.616 79.6836 759.683 83.1016 757.144 86.0312C754.605 88.9219 751.499 91.168 747.827 92.7695C744.155 94.3711 739.956 95.1719 735.23 95.1719C730.542 95.1719 726.343 94.3711 722.632 92.7695C718.921 91.168 715.796 88.9219 713.257 86.0312C710.718 83.1016 708.784 79.6836 707.456 75.7773C706.128 71.832 705.464 67.5547 705.464 62.9453ZM720.933 61.7148V62.9453C720.933 65.7188 721.206 68.3164 721.753 70.7383C722.3 73.1602 723.14 75.2891 724.273 77.125C725.405 78.9609 726.87 80.4062 728.667 81.4609C730.503 82.4766 732.691 82.9844 735.23 82.9844C737.73 82.9844 739.878 82.4766 741.675 81.4609C743.472 80.4062 744.937 78.9609 746.07 77.125C747.241 75.2891 748.101 73.1602 748.648 70.7383C749.195 68.3164 749.468 65.7188 749.468 62.9453V61.7148C749.468 58.9805 749.195 56.4219 748.648 54.0391C748.101 51.6172 747.241 49.4883 746.07 47.6523C744.937 45.7773 743.452 44.3125 741.616 43.2578C739.82 42.1641 737.652 41.6172 735.112 41.6172C732.612 41.6172 730.464 42.1641 728.667 43.2578C726.87 44.3125 725.405 45.7773 724.273 47.6523C723.14 49.4883 722.3 51.6172 721.753 54.0391C721.206 56.4219 720.933 58.9805 720.933 61.7148ZM790.763 44.1367V94H775.294V30.6016H789.825L790.763 44.1367ZM788.302 60.0156H783.731C783.77 55.4062 784.395 51.2266 785.606 47.4766C786.817 43.7266 788.516 40.5039 790.704 37.8086C792.93 35.1133 795.567 33.043 798.614 31.5977C801.661 30.1523 805.059 29.4297 808.809 29.4297C811.856 29.4297 814.61 29.8594 817.071 30.7188C819.532 31.5781 821.641 32.9453 823.399 34.8203C825.196 36.6953 826.563 39.1562 827.501 42.2031C828.477 45.2109 828.966 48.9219 828.966 53.3359V94H813.38V53.2188C813.38 50.3281 812.95 48.043 812.091 46.3633C811.27 44.6836 810.059 43.4922 808.458 42.7891C806.895 42.0859 804.962 41.7344 802.657 41.7344C800.274 41.7344 798.184 42.2227 796.388 43.1992C794.63 44.1367 793.145 45.4453 791.934 47.125C790.763 48.8047 789.864 50.7383 789.239 52.9258C788.614 55.1133 788.302 57.4766 788.302 60.0156Z" fill="#062156"/>
</svg>
